<?xml version="1.0" encoding="utf-8"?>
<!-- Generator: Adobe Illustrator 19.0.0, SVG Export Plug-In . SVG Version: 6.00 Build 0)  -->
<svg version="1.1" id="Warstwa_1" xmlns="http://www.w3.org/2000/svg" xmlns:xlink="http://www.w3.org/1999/xlink" x="0px" y="0px"
	 viewBox="0 0 311.6 190.2" style="enable-background:new 0 0 311.6 190.2;" xml:space="preserve">
<style type="text/css">
	.st0{fill:#EDF2F7;}
	.st1{fill:#D7E4EC;}
	.st2{fill:#C0D6E4;}
	.st3{fill:#D5D4D6;}
	.st4{fill:#DAD9D4;}
	.st5{opacity:0.3;}
	.st6{fill:#CEEDD1;}
	.st7{fill:#CAEACD;}
	.st8{opacity:0.22;}
	.st9{fill:url(#XMLID_6_);}
	.st10{fill:url(#XMLID_15_);}
	.st11{opacity:0.3;fill:url(#XMLID_67_);}
	.st12{fill:url(#XMLID_72_);}
	.st13{fill:url(#XMLID_73_);}
	.st14{fill:url(#XMLID_74_);}
	.st15{fill:url(#XMLID_75_);}
	.st16{fill:url(#XMLID_80_);}
	.st17{fill:url(#XMLID_86_);}
	.st18{fill:#E2CBC7;}
	.st19{fill:url(#XMLID_101_);}
	.st20{fill:#DAE0DA;}
	.st21{fill:url(#XMLID_104_);}
	.st22{fill:#D8C8B8;}
	.st23{fill:url(#XMLID_105_);}
	.st24{fill:#A8A39D;}
	.st25{fill:url(#XMLID_106_);}
	.st26{opacity:0.3;fill:url(#XMLID_107_);}
	.st27{opacity:0.3;fill:url(#XMLID_109_);}
	.st28{opacity:0.3;fill:url(#XMLID_110_);}
	.st29{opacity:0.22;fill:url(#XMLID_112_);}
	.st30{opacity:0.22;fill:url(#XMLID_113_);}
</style>
<polygon id="XMLID_41_" class="st0" points="243,190.7 311.6,151.1 311.6,118.8 243,158.4 "/>
<polygon id="XMLID_62_" class="st1" points="311.6,71.9 243,32.2 243,0 311.6,39.6 "/>
<polygon id="XMLID_69_" class="st2" points="311.6,118.8 311.6,151.1 243,111.5 174.4,71.8 174.4,39.6 243,79.2 "/>
<polygon id="XMLID_40_" class="st3" points="174.4,71.9 243,32.2 243,0 174.4,39.6 "/>
<polygon id="XMLID_60_" class="st4" points="243,190.7 174.4,151.1 174.4,118.8 243,158.4 "/>
<polygon id="XMLID_61_" class="st5" points="174.4,71.9 184,77.4 202.3,55.7 "/>
<polygon id="XMLID_38_" class="st5" points="311.6,151.1 302,156.6 283.7,135 "/>
<polygon id="XMLID_91_" class="st0" points="243,190.7 311.6,151.1 311.6,118.8 243,158.4 "/>
<polygon id="XMLID_88_" class="st6" points="311.6,71.9 243,32.2 243,0 311.6,39.6 "/>
<polygon id="XMLID_84_" class="st7" points="311.6,118.8 311.6,151.1 243,111.5 174.4,71.8 174.4,39.6 243,79.2 "/>
<polygon id="XMLID_68_" class="st3" points="174.4,71.9 243,32.2 243,0 174.4,39.6 "/>
<polygon id="XMLID_65_" class="st4" points="243,190.7 174.4,151.1 174.4,118.8 243,158.4 "/>
<polygon id="XMLID_64_" class="st8" points="174.4,71.9 208.7,59.4 202.3,55.7 "/>
<polygon id="XMLID_63_" class="st8" points="311.6,151.1 276.6,139 283.7,135 "/>
<linearGradient id="XMLID_6_" gradientUnits="userSpaceOnUse" x1="311.6046" y1="118.841" x2="311.6245" y2="118.841">
	<stop  offset="0" style="stop-color:#FFFFFF"/>
	<stop  offset="1" style="stop-color:#000000"/>
</linearGradient>
<polygon id="XMLID_122_" class="st9" points="311.6,118.8 311.6,118.9 311.6,118.8 "/>
<linearGradient id="XMLID_15_" gradientUnits="userSpaceOnUse" x1="156.8845" y1="154.756" x2="225.5045" y2="154.756">
	<stop  offset="0" style="stop-color:#FFFFFF"/>
	<stop  offset="1" style="stop-color:#000000"/>
</linearGradient>
<polygon id="XMLID_71_" class="st10" points="243,158.5 243,190.7 174.4,151.1 174.4,118.8 "/>
<linearGradient id="XMLID_67_" gradientUnits="userSpaceOnUse" x1="302.0345" y1="153.846" x2="311.6245" y2="153.846">
	<stop  offset="0" style="stop-color:#FFFFFF"/>
	<stop  offset="1" style="stop-color:#000000"/>
</linearGradient>
<polygon id="XMLID_70_" class="st11" points="311.6,151.1 302,156.6 302,156.6 "/>
<linearGradient id="XMLID_72_" gradientUnits="userSpaceOnUse" x1="246.6971" y1="172.1432" x2="296.6971" y2="144.1432">
	<stop  offset="0" style="stop-color:#FFFFFF"/>
	<stop  offset="1" style="stop-color:#000000"/>
</linearGradient>
<polygon id="XMLID_87_" class="st12" points="311.6,151.1 302,156.6 243,190.7 243,158.5 283.7,135 283.7,135 "/>
<linearGradient id="XMLID_73_" gradientUnits="userSpaceOnUse" x1="311.6112" y1="118.848" x2="311.6263" y2="118.8389">
	<stop  offset="0" style="stop-color:#FFFFFF"/>
	<stop  offset="1" style="stop-color:#000000"/>
</linearGradient>
<polygon id="XMLID_117_" class="st13" points="311.6,118.8 311.6,118.9 311.6,118.8 "/>
<linearGradient id="XMLID_74_" gradientUnits="userSpaceOnUse" x1="245.8229" y1="16.4281" x2="307.3452" y2="54.53">
	<stop  offset="0" style="stop-color:#FFFFFF"/>
	<stop  offset="1" style="stop-color:#000000"/>
</linearGradient>
<polygon id="XMLID_66_" class="st14" points="311.6,39.6 311.6,71.9 243,32.2 243,0 "/>
<linearGradient id="XMLID_75_" gradientUnits="userSpaceOnUse" x1="318.6625" y1="138.8029" x2="181.2172" y2="59.9408">
	<stop  offset="0" style="stop-color:#FFFFFF"/>
	<stop  offset="1" style="stop-color:#000000"/>
</linearGradient>
<polygon id="XMLID_34_" class="st15" points="311.6,118.9 311.6,151.1 283.7,135 283.7,135 243,111.5 184,77.4 174.4,71.9 
	202.3,55.7 202.3,55.7 243,79.2 311.6,118.8 "/>
<linearGradient id="XMLID_80_" gradientUnits="userSpaceOnUse" x1="232.9161" y1="49.8237" x2="184.4772" y2="22.0308">
	<stop  offset="0" style="stop-color:#FFFFFF"/>
	<stop  offset="1" style="stop-color:#000000"/>
</linearGradient>
<polygon id="XMLID_85_" class="st16" points="243,0 243,32.2 202.3,55.7 202.3,55.7 174.4,71.9 174.4,39.6 174.4,39.6 "/>
<linearGradient id="XMLID_86_" gradientUnits="userSpaceOnUse" x1="242.3234" y1="173.3162" x2="178.354" y2="138.0107">
	<stop  offset="0" style="stop-color:#FFFFFF"/>
	<stop  offset="1" style="stop-color:#000000"/>
</linearGradient>
<polygon id="XMLID_31_" class="st17" points="243,158.5 243,190.7 174.4,151.1 174.4,118.8 "/>
<rect id="XMLID_79_" x="138" y="0" class="st18" width="28.3" height="190.2"/>
<linearGradient id="XMLID_101_" gradientUnits="userSpaceOnUse" x1="152.9084" y1="189.5981" x2="151.4084" y2="3.0981">
	<stop  offset="0" style="stop-color:#FFFFFF"/>
	<stop  offset="1" style="stop-color:#000000"/>
</linearGradient>
<rect id="XMLID_30_" x="138" y="0" class="st19" width="28.3" height="190.2"/>
<polygon id="XMLID_81_" class="st20" points="69,190.7 97.3,190.7 166.3,0 138,0 "/>
<linearGradient id="XMLID_104_" gradientUnits="userSpaceOnUse" x1="151.9002" y1="3.7543" x2="82.9002" y2="188.2543">
	<stop  offset="0" style="stop-color:#FFFFFF"/>
	<stop  offset="1" style="stop-color:#000000"/>
</linearGradient>
<polygon id="XMLID_29_" class="st21" points="69,190.7 97.3,190.7 166.3,0 138,0 "/>
<polygon id="XMLID_77_" class="st22" points="97.3,190.7 69,190.7 0,0 28.3,0 "/>
<linearGradient id="XMLID_105_" gradientUnits="userSpaceOnUse" x1="83.8174" y1="188.724" x2="13.8174" y2="2.724">
	<stop  offset="0" style="stop-color:#FFFFFF"/>
	<stop  offset="1" style="stop-color:#000000"/>
</linearGradient>
<polygon id="XMLID_28_" class="st23" points="97.3,190.7 69,190.7 0,0 28.3,0 "/>
<rect id="XMLID_76_" class="st24" width="28.3" height="190.2"/>
<polygon id="XMLID_35_" class="st5" points="28.3,0 28.3,78.3 34.5,95.3 "/>
<polygon id="XMLID_36_" class="st5" points="138,78.3 166.3,0 138,95.1 "/>
<polygon id="XMLID_2_" class="st5" points="97.3,190.7 83.2,151.5 84.8,146.9 "/>
<linearGradient id="XMLID_106_" gradientUnits="userSpaceOnUse" x1="14.0015" y1="4.6032" x2="14.3497" y2="188.109">
	<stop  offset="0" style="stop-color:#FFFFFF"/>
	<stop  offset="1" style="stop-color:#000000"/>
</linearGradient>
<rect id="XMLID_27_" class="st25" width="28.3" height="190.2"/>
<linearGradient id="XMLID_107_" gradientUnits="userSpaceOnUse" x1="31.3123" y1="83.5991" x2="29.6456" y2="34.9325">
	<stop  offset="0" style="stop-color:#FFFFFF"/>
	<stop  offset="1" style="stop-color:#000000"/>
</linearGradient>
<polygon id="XMLID_24_" class="st26" points="28.3,0 28.3,78.3 34.5,95.3 "/>
<linearGradient id="XMLID_109_" gradientUnits="userSpaceOnUse" x1="138.9699" y1="83.8219" x2="160.3033" y2="21.8219">
	<stop  offset="0" style="stop-color:#FFFFFF"/>
	<stop  offset="1" style="stop-color:#000000"/>
</linearGradient>
<polygon id="XMLID_5_" class="st27" points="138,78.3 166.3,0 138,95.1 "/>
<linearGradient id="XMLID_110_" gradientUnits="userSpaceOnUse" x1="84.9931" y1="152.1527" x2="94.3264" y2="180.1527">
	<stop  offset="0" style="stop-color:#FFFFFF"/>
	<stop  offset="1" style="stop-color:#000000"/>
</linearGradient>
<polygon id="XMLID_4_" class="st28" points="97.3,190.7 83.2,151.5 84.8,146.9 "/>
<linearGradient id="XMLID_112_" gradientUnits="userSpaceOnUse" x1="204.3332" y1="58.1237" x2="184.5832" y2="67.3737">
	<stop  offset="0" style="stop-color:#FFFFFF"/>
	<stop  offset="1" style="stop-color:#000000"/>
</linearGradient>
<polygon id="XMLID_33_" class="st29" points="174.4,71.9 208.7,59.4 202.3,55.7 "/>
<linearGradient id="XMLID_113_" gradientUnits="userSpaceOnUse" x1="282.0396" y1="137.9252" x2="303.2896" y2="148.4252">
	<stop  offset="0" style="stop-color:#FFFFFF"/>
	<stop  offset="1" style="stop-color:#000000"/>
</linearGradient>
<polygon id="XMLID_37_" class="st30" points="311.6,151.1 276.6,139 283.7,135 "/>
</svg>
